<?xml version="1.0" encoding="utf-8"?>
<!-- Generator: Adobe Illustrator 23.0.3, SVG Export Plug-In . SVG Version: 6.00 Build 0)  -->
<svg version="1.1" id="Layer_1" xmlns="http://www.w3.org/2000/svg" xmlns:xlink="http://www.w3.org/1999/xlink" x="0px" y="0px"
	 viewBox="0 0 512 512" style="enable-background:new 0 0 512 512;" xml:space="preserve">
<style type="text/css">
	.st0{fill:#009EF4;}
	.st1{fill:#A0E45A;}
	.st2{opacity:0.1;}
</style>
<g>
	
		<ellipse transform="matrix(0.7071 -0.7071 0.7071 0.7071 -82.6391 247.136)" class="st0" cx="257" cy="223.3" rx="200.3" ry="200.3"/>
	<path class="st1" d="M339.4,143.4c2.2,2.3,3.8,5.2,5.9,7.4c1.8,1.9,4.5,3.2,6.1,5.5c3.6,4.9,5.2,12.1,8.5,17.4
		c2.8,4.5,8.6,7.6,10.1,12.9c2.3,8.3,1.5,9.7,9.4,2.6c1.8-1.6,3-2.6,4.8-4.9c2-2.6,5-4.9,7.3-7.3c3.3-3.3,7.3-6.1,8.5-10.1
		c0.7-2.1,2-12.4,1.4-14.6c-0.7-2.4-5.5-5.6-8.3-4.8c-1-2-2.3-4.1-3.6-5.9c-2.7,2.1-1.9,4.9-6,5.5c-4.5,0.7-5.8-2.5-7.9-5.6
		c-3.1-4.5-8.1-10-8.4-15.2c4,1.1,7.5,2.2,10.4,5c2,2,2.8,4.9,5.4,6.2c2.9,1.5,8.1,2,10.3-0.8c2.1,4.9,6.1,7.1,11.5,5.8
		c3.5-0.8,6.6-5.4,10.3-2.4c2.1,1.7,3.7,7.4,6,9.9c9.6,10.3,13.3,22.6,16.9,36.1c1.2,4.6,3,9.5,3.4,14.4c0.2,3-1,6.1,0.2,8.8
		c8.2-0.7,0.4-32.9-0.8-37.1c-2.2-7.7-2.5-12.2-1.6-20.3c0.4-3.5,0.6-7.1,0.5-10.8C413.9,83.9,361.9,40.9,299,27.4
		c3.3,2.1,7.4,4.8,7.6,6.4c0.4,4.6-5.8,2.1-8,2c-4.6-0.2-4.3,2-7.8,3.4c0.8-8.2-17.4-10.3-23-8.3c-4.9,1.8-8,5.4-12.2,7.7
		c-5.8,3.2-11.9,0.9-17.6,6.1c3.2,0.6,5.7,2.1,8.8,3c1.7,0.5,4.1,0.1,5.4,1c2.9,1.8,2,5.3,6.2,3.7c2.6-1,4.7-5.4,5.5-7.2
		c0.2-0.6-0.8-1.5,0-2.9c0.6-1,4.7-3.1,5.6-3.4c-2,5,1.9,7.2,6.4,5.9c-0.4,2.2-2.1,2.7-3.3,4.9c-0.9,1.7-0.4,4.4-1.5,5.9
		c-3.1,4.2-5.8-0.2-9.3,0c-3.9,0.3-4.6,4-9.4,2.1c-3-1.2-5.7-4.5-7.7-6.7c-2,1.9-1.8,4.6-3.9,6.7c-3,2.9-7.1,3.9-10.8,5.1
		c-6.1,1.9-13.7,3.2-20.3,4.2c-3.1,5.5,5.8,4.6,5.4,9.9c-0.2,2-0.6,1.6-1.6,3c-0.3,0.4-4.4,3.3-5.4,4c-2.4-2.6-4.9-3.4-8.3-3.1
		c-2.1,0.2-8.3,1.1-10.2,2.3c-7,4.4-2.9,13.7-3.2,19.9c3.7,1.3,6.3-0.2,9.8-0.4c1.6-0.1,2-0.7,3.6-0.5c1.1,0.1,1.7,1.8,2.9,2
		c3.5,0.5,7.7-3,9.9-5.2c2.3-2.4,3.5-7.8,6-9.6c1.7-1.3,1.9-0.4,4-1.1c2.4-0.7,10.4-1.4,7-5.9c3.6,0.7,12.5,3,12.3-3.5
		c4-0.7,10,8.9,12.5,11.7c3,3.3,8.7,5.6,6.8,10.9c1.9-1.6,2.6-4.7,2.9-7.1c0.5-3.9,1.4-2.9-2.2-5.2c-2-1.3-18.5-6.9-9.5-11.3
		c3-1.5,8.1,3.3,11.1,3.9c5.2,0.9,8.4,0.2,11.3,5.9c1.5,3,1.7,7.1,2.6,10.3c1.9,6.4,3.4,5.7,9.8,4.5c-5.3-1.6-5.5-8.8-0.4-10.3
		c1.2-0.4,7.2,0.4,8.8,2c1.4,1.4,0.5,3.9,1.6,5.4c2,2.6,5.8,2.6,8.5,3.9c2,1,3.8,3.1,6,3.4c4.3,0.6,7.2-6,10.1-6.9
		c6.6-2,5.5,5.5,4.6,11c-1,5.5-6.6,11.9-12.2,12.7c-4.7,0.7-11.5-1.1-16-1.9c-5.9-1.1-10.4-3.8-15.6-5.8c-8.1-3-5.7,1.2-5.3,6.8
		c-4.7-1-9.1-4.2-13.9-5.5c-3-0.8-5.8-0.9-8.7-2c-2.4-0.8-6.5-1-8.6-1.9c-5.4-2.3-1.7-1.4-2.1-6.2c-0.4-4.5-0.4-2.5-4.6-3.6
		c-3.5-0.9-6.6-2.5-10.4-2.1c-5.3,0.5-10.1,3.4-15.3,3.7c-7.8,0.4-14.7,0.9-22.3,2.7c-4.9,1.2-5,3.8-7.8,8.9
		c-1.5,2.7-3.2,4.3-5.5,6.3c-4,3.3-5.9,6.7-9.5,10.8c-1.8,2-4.6,7.1-6.6,8.5c-2,1.4-4.1,0.2-6.3,1.3c-3.7,1.8-6.8,10.2-8.6,13.6
		c-2.5,4.8-6,9.5-5.9,15c0.1,6.6,2,11.5,0.1,17.7c-0.9,3.1-2.8,3.3-1.5,7.6c1.9,6,5,4.6,8.9,7.3c5,3.5,3.3,10.7,9,15.6
		c5.4,4.6,8.7,8.5,15.2,7.5c4.6-0.6,7.2-1.1,11.8-0.4c4.8,0.7,4.6,0.8,9.7-0.9c8.2-2.7,17.4-5.4,26-3.1c5.4,1.4,6.8,6,10.9,8.5
		c4.6,2.8,7.9,1.8,7.4,9.3c-0.7,0.3-1.1,0.3-1.9,0.6c-0.5,8.5-0.1,18.1,5.2,25.2c4.9,6.6,12,9.2,13,18c0.5,4.6,0.2,8-1.1,12.5
		c-0.8,2.8-3.1,7.7-3.7,11c-0.6,2.8-0.8,10.7,0.8,13.1c1.7,2.5,5.2,3.2,6.5,6.6c0.8,2.1,1.7,5.8,2.1,7.9c1.6,7.7,2.2,14.2,6.3,21.6
		c3.7,6.6,8.8,9.5,10.5,17c7.1,0.6,15.4-1.1,22.1-2.4c0.7-0.1,5.5-0.7,5.9-1c1.8-1.5,0.6-4.5,2.3-6.2c1.4-1.3,3.3,0,4.6-1
		c1.4-1,2.1-3.2,2.9-4.7c2.6-4.9,4.3-10,8.2-14c3.7-3.8,8.5-7.4,11.8-11.7c1.7-2.2,3.3-4.7,4.8-6.8c0.9-1.3,1.9-0.2,2.6-2.1
		c0.9-2.3-1.9-7.2-2.5-9.4c4.6-1.7,8-2.1,11.3-6c1.9-2.2,2.3-5.1,3.5-7.4c0.8-1.5,2.3-3.1,3-4.6c2.2-5.3,2.6-11.9,1.1-17.3
		c-1.4-5.1-4-8.6-3.1-14.3c1.1-7.7,6.5-13,10.4-19.3c2.1-3.4,3-5.4,6-7.4c3.3-2.4,5.8-3.2,8.4-7c6.5-9.7,14.8-23.3,13.3-35.5
		c-3.2-2.4-3.7,0.3-6.4,1.5c-3.3,1.4-14,4.4-17.3,3.4c-4.5-1.4-3.3-5.6-5.3-8.9c-2.3-3.6-7.5-6.9-10.5-10.5
		c-3.4-4.1-7.7-8.1-10.1-12.8c-2.6-5.3-3.3-10.8-7.1-15.3c-5.6-6.6-10.7-14-9.9-23.3C330.7,135.1,335.4,139.2,339.4,143.4z"/>
	<path class="st1" d="M303.1,76.8c-6-8.1-4.8,10.8-4.9,13.3c3.2-0.9,4.2-2.6,7.9-2.8c1-0.1,3.5,0.5,4.7,0.4c0.9,0,1.9-1.2,3.3-1.1
		c2.2,0.1,5.1,2.1,7.3,2.6c2,0.5,6.9,2.6,8.4,2.5c3.9-0.4,4.1-3.6,1.2-5.3c-3.7-2.2-7.1,0.2-10.1-4c-2.1-2.9-4.9-18.2-8.4-6.4
		c-0.9,3.1,1,5.8-3.6,4.9C307.6,80.7,305.3,78.1,303.1,76.8z"/>
	<path class="st1" d="M346.1,74.9c-1.7,0-5.2,1.2-5.7,3.2c-0.7,3,1.4,2.5,3.3,4.1c3.1,2.5,6.5,5.6,8.2,9.5c0.7,1.7,1.4,3.8,2,5.6
		c0.3,1,0.9,5.2,1.6,5.7c1.2,1.1,10.9,1.1,12.8,1.5c0.6-4.9-7.1-7-8.7-10.9c-0.5-1.3,0.7-3.7-0.1-4.8c-1.1-1.6-3.5-1.4-5-2.4
		c-2.1-1.4-6.7-4.8-6.9-7.5c-0.2-2,2.5-1.8,2-3.7C349,73.1,346.8,73.3,346.1,74.9z"/>
	<path class="st1" d="M383.2,295.5c-2.8-0.3-3,2.7-3.8,5c-0.2,0.6-1,4.2-1.4,4.5c-1.5,1-1.6-0.9-3-0.5c-2.4,0.6-8.6,1.5-10.2,3.2
		c-4.2,4.7,1.8,5.9,2.5,9.7c1,5.8-5,3.8-7.3,7c-1.2,1.7-2.1,11.2-1.5,13.2c11.1,5,14.2-13.1,17.5-19.8
		C377.8,314,387.2,296,383.2,295.5z"/>
	<path class="st1" d="M102.8,345.1c-1.6-4.6-7.5-7.2-9.9-11.3c-2-3.4-3.6-10.1-3.9-14.1c5.3-0.6,7.6-3.8,5.8-8.4
		c-2-4.9-5.1-9.6-5.3-15.1c-0.2-4.6,0.3-9.4-0.1-14.1c-0.3-3.3,0.2-5.9,1.2-8.9c1.1-3.1,3.6-5.8,2.7-9.2c-1.4-5.4-7.7-10-12-13.1
		c-3.7-2.8-8.4-5.2-10.5-9.5c-2.3-4.7-2.2-10.7-3.9-15.6c-1-2.9-3-4.9-3.8-7.7c-1.4-4.6,0.2-9.1-1.4-14c-1.1-3.2-2.1-6-3-8.8
		c-1.3,9.2-2,18.6-2,28.1c0,48.7,17.4,93.4,46.4,128.1C102.9,349.3,103.4,347,102.8,345.1z"/>
	<path class="st2" d="M303.3,415.4c-113.1,0-204.8-91.7-204.8-204.8C98.5,131.5,143.4,63,209,28.8C121.5,50.4,56.7,129.2,56.7,223.3
		c0,110.6,89.7,200.3,200.3,200.3c20.3,0,39.9-3,58.4-8.7C311.4,415.2,307.4,415.4,303.3,415.4z"/>
</g>
<ellipse class="st2" cx="259" cy="467" rx="98.1" ry="24"/>
</svg>
